<svg xmlns="http://www.w3.org/2000/svg" data-name="Layer 1" viewBox="0 0 32 32" id="delivery-date"><path d="m14.79,26h-5.95c-1.65,0-3-1.35-3-3v-12c0-1.65,1.35-3,3-3h1v1c0,.55.45,1,1,1s1-.45,1-1v-1h8v1c0,.55.45,1,1,1s1-.45,1-1v-1h1c1.65,0,3,1.35,3,3v.86c0,.55.45,1,1,1s1-.45,1-1v-.86c0-2.76-2.24-5-5-5h-1v-1c0-.55-.45-1-1-1s-1,.45-1,1v1h-8v-1c0-.55-.45-1-1-1s-1,.45-1,1v1h-1c-2.76,0-5,2.24-5,5v12c0,2.76,2.24,5,5,5h5.95c.55,0,1-.45,1-1s-.45-1-1-1Z"></path><path d="m22.84,14c-3.86,0-7,3.14-7,7s3.14,7,7,7,7-3.14,7-7-3.14-7-7-7Zm0,12c-2.76,0-5-2.24-5-5s2.24-5,5-5,5,2.24,5,5-2.24,5-5,5Z"></path><path d="m23.84,20.59v-1.59c0-.55-.45-1-1-1s-1,.45-1,1v2c0,.27.11.52.29.71l2,2c.2.2.45.29.71.29s.51-.1.71-.29c.39-.39.39-1.02,0-1.41l-1.71-1.71Z"></path></svg>