<svg xmlns="http://www.w3.org/2000/svg" viewBox="0 0 64 64" id="package-checklist"><path d="m6.4 46.4 22 6.6h.6c.2 0 .4 0 .5-.1l7.8-2.3c2 3.8 6 6.4 10.6 6.4 6.6 0 12-5.4 12-12 0-4.8-2.9-9-7-10.9V17.5c0-.1-.1-.2-.1-.3v-.1c-.1-.1-.1-.2-.2-.4l-.1-.1c-.1-.1-.1-.2-.2-.2h-.1c-.1-.1-.2-.1-.2-.1-.1 0-.1 0-.2-.1h-.1l-22-7c-.4-.1-.8-.1-1.2 0l-22 7h-.1c-.1 0-.1 0-.2.1-.1 0-.2.1-.2.1h-.1c-.1.1-.2.1-.2.2l-.1.1c-.1.1-.2.2-.2.4v.1c0 .1-.1.2-.1.3v26.9c-.3.9.3 1.7 1.1 2zM9 20.7l7 2.1V27c0 1.1.9 2 2 2s2-.9 2-2v-3l7 2.1v22.3L9 42.9V20.7zm35.2-2.8L29 22.5l-3.5-1 13.9-5 4.8 1.4zM56 45c0 4.4-3.6 8-8 8s-8-3.6-8-8 3.6-8 8-8 8 3.6 8 8zm-8-12c-6.6 0-12 5.4-12 12 0 .6.1 1.2.1 1.8L31 48.3V26.1l18-5.4v12.4c-.3-.1-.7-.1-1-.1zM29 13.1l4.2 1.3L19 19.5l-5.2-1.6L29 13.1z"></path><path d="M46.4 43.6c-.8-.8-2-.8-2.8 0-.8.8-.8 2 0 2.8l2 2c.4.4.9.6 1.4.6s1-.2 1.4-.6l4-4c.8-.8.8-2 0-2.8-.8-.8-2-.8-2.8 0L47 44.2l-.6-.6z"></path></svg>