<svg xmlns="http://www.w3.org/2000/svg" width="32" height="32" enable-background="new 0 0 32 32" viewBox="0 0 32 32" id="fulltime-tracking"><path d="M29.902,15.767l-3.057-5.503C26.142,8.994,24.452,8,23,8h-2V6c0-1.654-1.346-3-3-3H4C2.346,3,1,4.346,1,6v9
		c0,1.654,1.346,3,3,3h9.586l3.707,3.707C17.484,21.898,17.74,22,18,22c0.129,0,0.259-0.024,0.383-0.076
		C18.757,21.77,19,21.404,19,21v-3.171c1.164-0.413,2-1.525,2-2.829v-5h2c0.739,0,1.739,0.588,2.098,1.234l3.057,5.504
		c0.311,0.558,0.592,1.455,0.738,2.262H25c-0.552,0-1-0.448-1-1v-4c0-0.552-0.447-1-1-1s-1,0.448-1,1v4c0,1.654,1.346,3,3,3h4v4h-1
		c-0.048,0-0.088,0.021-0.134,0.027C27.429,23.293,25.869,22,24,22c-1.858,0-3.411,1.279-3.858,3H14c-0.553,0-1,0.447-1,1
		s0.447,1,1,1h6.142c0.093,0.355,0.233,0.689,0.415,1H19c-0.553,0-1,0.447-1,1s0.447,1,1,1h5c1.869,0,3.429-1.293,3.866-3.027
		C27.912,26.979,27.952,27,28,27h2c0.553,0,1-0.447,1-1v-6C31,18.733,30.518,16.874,29.902,15.767z M19,15c0,0.551-0.448,1-1,1
		c-0.553,0-1,0.448-1,1v1.586l-2.293-2.293C14.52,16.105,14.266,16,14,16H4c-0.552,0-1-0.449-1-1V6c0-0.551,0.448-1,1-1h14
		c0.552,0,1,0.449,1,1V15z M24,28c-1.103,0-2-0.897-2-2s0.897-2,2-2s2,0.897,2,2S25.103,28,24,28z"></path><path d="M8 22c-1.858 0-3.411 1.279-3.858 3H3v-5c0-.553-.447-1-1-1s-1 .447-1 1v6c0 .553.447 1 1 1h2.142c.093.355.233.689.415 1H2c-.553 0-1 .447-1 1s.447 1 1 1h6c2.206 0 4-1.794 4-4S10.206 22 8 22zM8 28c-1.103 0-2-.897-2-2s.897-2 2-2 2 .897 2 2S9.103 28 8 28zM16 28h-1c-.553 0-1 .447-1 1s.447 1 1 1h1c.553 0 1-.447 1-1S16.553 28 16 28zM7 6C5.346 6 4 7.346 4 9c0 .552.447 1 1 1s1-.448 1-1c0-.551.448-1 1-1 .554 0 1 .547 1 1 0 .923-1.869 2.899-3.601 4.2-.344.258-.484.708-.348 1.116C4.188 14.725 4.569 15 5 15h4c.553 0 1-.448 1-1s-.447-1-1-1H7.676C8.827 11.849 10 10.346 10 9 10 7.402 8.598 6 7 6zM17 11c0-.552-.447-1-1-1s-1 .448-1 1h-1.233l2.091-3.485c.284-.474.131-1.088-.343-1.372-.474-.285-1.088-.131-1.372.343l-3 5c-.186.309-.19.694-.013 1.007S11.64 13 12 13h3v1c0 .552.447 1 1 1s1-.448 1-1v-1c.553 0 1-.448 1-1S17.553 11 17 11z"></path></svg>